<svg xmlns="http://www.w3.org/2000/svg" viewBox="0 0 32 32" fill="none">
  <rect width="32" height="32" rx="8" fill="#0f0f13"/>
  <!-- Sparkle center -->
  <circle cx="16" cy="16" r="3" fill="#8b5cf6"/>
  <!-- Graph edges -->
  <line x1="16" y1="13" x2="16" y2="6" stroke="#6366f1" stroke-width="1.5" stroke-linecap="round"/>
  <line x1="16" y1="19" x2="16" y2="26" stroke="#6366f1" stroke-width="1.5" stroke-linecap="round"/>
  <line x1="13" y1="16" x2="6" y2="16" stroke="#6366f1" stroke-width="1.5" stroke-linecap="round"/>
  <line x1="19" y1="16" x2="26" y2="16" stroke="#6366f1" stroke-width="1.5" stroke-linecap="round"/>
  <!-- Diagonal edges -->
  <line x1="13.9" y1="13.9" x2="9" y2="9" stroke="#818cf8" stroke-width="1.2" stroke-linecap="round"/>
  <line x1="18.1" y1="18.1" x2="23" y2="23" stroke="#818cf8" stroke-width="1.2" stroke-linecap="round"/>
  <line x1="18.1" y1="13.9" x2="23" y2="9" stroke="#818cf8" stroke-width="1.2" stroke-linecap="round"/>
  <line x1="13.9" y1="18.1" x2="9" y2="23" stroke="#818cf8" stroke-width="1.2" stroke-linecap="round"/>
  <!-- Outer nodes -->
  <circle cx="16" cy="6" r="2" fill="#6366f1"/>
  <circle cx="16" cy="26" r="2" fill="#6366f1"/>
  <circle cx="6" cy="16" r="2" fill="#6366f1"/>
  <circle cx="26" cy="16" r="2" fill="#6366f1"/>
  <circle cx="9" cy="9" r="1.5" fill="#a78bfa"/>
  <circle cx="23" cy="23" r="1.5" fill="#a78bfa"/>
  <circle cx="23" cy="9" r="1.5" fill="#a78bfa"/>
  <circle cx="9" cy="23" r="1.5" fill="#a78bfa"/>
</svg>
